<svg xmlns="http://www.w3.org/2000/svg" viewBox="0 0 64 64" role="img" aria-label="Rose Therapy">
  <defs>
    <linearGradient id="g" x1="0" x2="1" y1="0" y2="1">
      <stop offset="0" stop-color="#b76a78"/>
      <stop offset="1" stop-color="#9d5663"/>
    </linearGradient>
  </defs>
  <path d="M32 10c6 0 10 4 10 10 0 3-1 6-3 8 3 1 5 4 5 8 0 7-6 12-12 12-7 0-12-5-12-12 0-4 2-7 5-8-2-2-3-5-3-8 0-6 4-10 10-10z" fill="url(#g)" opacity=".92"/>
  <path d="M32 20c3 0 5 2 5 5 0 2-1 3-2 4 2 1 3 3 3 5 0 4-3 7-6 7-4 0-6-3-6-7 0-2 1-4 3-5-1-1-2-2-2-4 0-3 2-5 5-5z" fill="#fff" opacity=".18"/>
  <path d="M31 42c0 6-2 10-6 14" stroke="#5a6473" stroke-width="2" fill="none" stroke-linecap="round" opacity=".6"/>
  <path d="M33 42c0 6 2 10 6 14" stroke="#5a6473" stroke-width="2" fill="none" stroke-linecap="round" opacity=".6"/>
</svg>
