<svg xmlns="http://www.w3.org/2000/svg" viewBox="0 0 32 32" aria-hidden="true">
  <path fill="currentColor" d="M19.11 17.39c-.24-.12-1.38-.68-1.59-.76-.21-.08-.36-.12-.51.12-.15.24-.59.76-.72.92-.13.16-.27.18-.51.06-.24-.12-1.01-.37-1.93-1.18-.71-.63-1.19-1.41-1.33-1.65-.14-.24-.02-.37.1-.49.1-.1.24-.27.36-.4.12-.13.16-.24.24-.4.08-.16.04-.3-.02-.42-.06-.12-.51-1.22-.7-1.68-.19-.46-.38-.39-.51-.39l-.44-.01c-.15 0-.4.06-.61.3-.21.24-.8.78-.8 1.91 0 1.13.82 2.21.93 2.36.11.15 1.62 2.48 3.93 3.48.55.24.98.38 1.31.49.55.18 1.04.15 1.43.09.44-.07 1.38-.56 1.57-1.1.19-.54.19-1 .13-1.1-.06-.1-.21-.16-.45-.28z"/>
  <path fill="currentColor" d="M26.67 15.99c0 5.89-4.79 10.68-10.68 10.68-1.88 0-3.64-.49-5.18-1.36L5.33 26.67l1.44-5.29c-.94-1.57-1.48-3.41-1.48-5.39C5.29 10.1 10.08 5.31 15.99 5.31c5.89 0 10.68 4.79 10.68 10.68zm-10.68-8.87c-4.89 0-8.87 3.98-8.87 8.87 0 1.88.59 3.62 1.6 5.04l-.93 3.41 3.51-.92c1.37.9 3 .42 4.69.42 4.89 0 8.87-3.98 8.87-8.87 0-4.89-3.98-8.88-8.87-8.88z"/>
</svg>
